<svg style="background-color:white" width="800" height="800"  version="1.1" xmlns="http://www.w3.org/2000/svg">
	<circle cx="300" cy="300" r="200" stroke="gold" stroke-width="3" fill="whitesmoke" />	<line  x1="470.000000" y1="300.000000" x2="495.000000" y2="300.000000" style="stroke-width: 4; stroke: gold;" />
	<line  x1="490.948204" y1="320.069465" x2="493.931770" y2="320.383050" style="stroke-width: 1; stroke: grey;" />
	<line  x1="487.804339" y1="339.919045" x2="490.738782" y2="340.542780" style="stroke-width: 1; stroke: grey;" />
	<line  x1="482.602851" y1="359.331263" x2="485.456021" y2="360.258314" style="stroke-width: 1; stroke: grey;" />
	<line  x1="475.400728" y1="378.093435" x2="478.141364" y2="379.313645" style="stroke-width: 1; stroke: grey;" />
	<line  x1="447.224319" y1="385.000000" x2="468.874954" y2="397.500000" style="stroke-width: 4; stroke: gold;" />
	<line  x1="455.331263" y1="412.854768" x2="457.758314" y2="414.618124" style="stroke-width: 1; stroke: grey;" />
	<line  x1="442.683806" y1="428.473076" x2="444.913241" y2="430.480468" style="stroke-width: 1; stroke: grey;" />
	<line  x1="428.473076" y1="442.683806" x2="430.480468" y2="444.913241" style="stroke-width: 1; stroke: grey;" />
	<line  x1="412.854768" y1="455.331263" x2="414.618124" y2="457.758314" style="stroke-width: 1; stroke: grey;" />
	<line  x1="385.000000" y1="447.224319" x2="397.500000" y2="468.874954" style="stroke-width: 4; stroke: gold;" />
	<line  x1="378.093435" y1="475.400728" x2="379.313645" y2="478.141364" style="stroke-width: 1; stroke: grey;" />
	<line  x1="359.331263" y1="482.602851" x2="360.258314" y2="485.456021" style="stroke-width: 1; stroke: grey;" />
	<line  x1="339.919045" y1="487.804339" x2="340.542780" y2="490.738782" style="stroke-width: 1; stroke: grey;" />
	<line  x1="320.069465" y1="490.948204" x2="320.383050" y2="493.931770" style="stroke-width: 1; stroke: grey;" />
	<line  x1="300.000000" y1="470.000000" x2="300.000000" y2="495.000000" style="stroke-width: 4; stroke: gold;" />
	<line  x1="279.930535" y1="490.948204" x2="279.616950" y2="493.931770" style="stroke-width: 1; stroke: grey;" />
	<line  x1="260.080955" y1="487.804339" x2="259.457220" y2="490.738782" style="stroke-width: 1; stroke: grey;" />
	<line  x1="240.668737" y1="482.602851" x2="239.741686" y2="485.456021" style="stroke-width: 1; stroke: grey;" />
	<line  x1="221.906565" y1="475.400728" x2="220.686355" y2="478.141364" style="stroke-width: 1; stroke: grey;" />
	<line  x1="215.000000" y1="447.224319" x2="202.500000" y2="468.874954" style="stroke-width: 4; stroke: gold;" />
	<line  x1="187.145232" y1="455.331263" x2="185.381876" y2="457.758314" style="stroke-width: 1; stroke: grey;" />
	<line  x1="171.526924" y1="442.683806" x2="169.519532" y2="444.913241" style="stroke-width: 1; stroke: grey;" />
	<line  x1="157.316194" y1="428.473076" x2="155.086759" y2="430.480468" style="stroke-width: 1; stroke: grey;" />
	<line  x1="144.668737" y1="412.854768" x2="142.241686" y2="414.618124" style="stroke-width: 1; stroke: grey;" />
	<line  x1="152.775681" y1="385.000000" x2="131.125046" y2="397.500000" style="stroke-width: 4; stroke: gold;" />
	<line  x1="124.599272" y1="378.093435" x2="121.858636" y2="379.313645" style="stroke-width: 1; stroke: grey;" />
	<line  x1="117.397149" y1="359.331263" x2="114.543979" y2="360.258314" style="stroke-width: 1; stroke: grey;" />
	<line  x1="112.195661" y1="339.919045" x2="109.261218" y2="340.542780" style="stroke-width: 1; stroke: grey;" />
	<line  x1="109.051796" y1="320.069465" x2="106.068230" y2="320.383050" style="stroke-width: 1; stroke: grey;" />
	<line  x1="130.000000" y1="300.000000" x2="105.000000" y2="300.000000" style="stroke-width: 4; stroke: gold;" />
	<line  x1="109.051796" y1="279.930535" x2="106.068230" y2="279.616950" style="stroke-width: 1; stroke: grey;" />
	<line  x1="112.195661" y1="260.080955" x2="109.261218" y2="259.457220" style="stroke-width: 1; stroke: grey;" />
	<line  x1="117.397149" y1="240.668737" x2="114.543979" y2="239.741686" style="stroke-width: 1; stroke: grey;" />
	<line  x1="124.599272" y1="221.906565" x2="121.858636" y2="220.686355" style="stroke-width: 1; stroke: grey;" />
	<line  x1="152.775681" y1="215.000000" x2="131.125046" y2="202.500000" style="stroke-width: 4; stroke: gold;" />
	<line  x1="144.668737" y1="187.145232" x2="142.241686" y2="185.381876" style="stroke-width: 1; stroke: grey;" />
	<line  x1="157.316194" y1="171.526924" x2="155.086759" y2="169.519532" style="stroke-width: 1; stroke: grey;" />
	<line  x1="171.526924" y1="157.316194" x2="169.519532" y2="155.086759" style="stroke-width: 1; stroke: grey;" />
	<line  x1="187.145232" y1="144.668737" x2="185.381876" y2="142.241686" style="stroke-width: 1; stroke: grey;" />
	<line  x1="215.000000" y1="152.775681" x2="202.500000" y2="131.125046" style="stroke-width: 4; stroke: gold;" />
	<line  x1="221.906565" y1="124.599272" x2="220.686355" y2="121.858636" style="stroke-width: 1; stroke: grey;" />
	<line  x1="240.668737" y1="117.397149" x2="239.741686" y2="114.543979" style="stroke-width: 1; stroke: grey;" />
	<line  x1="260.080955" y1="112.195661" x2="259.457220" y2="109.261218" style="stroke-width: 1; stroke: grey;" />
	<line  x1="279.930535" y1="109.051796" x2="279.616950" y2="106.068230" style="stroke-width: 1; stroke: grey;" />
	<line  x1="300.000000" y1="130.000000" x2="300.000000" y2="105.000000" style="stroke-width: 4; stroke: gold;" />
	<line  x1="320.069465" y1="109.051796" x2="320.383050" y2="106.068230" style="stroke-width: 1; stroke: grey;" />
	<line  x1="339.919045" y1="112.195661" x2="340.542780" y2="109.261218" style="stroke-width: 1; stroke: grey;" />
	<line  x1="359.331263" y1="117.397149" x2="360.258314" y2="114.543979" style="stroke-width: 1; stroke: grey;" />
	<line  x1="378.093435" y1="124.599272" x2="379.313645" y2="121.858636" style="stroke-width: 1; stroke: grey;" />
	<line  x1="385.000000" y1="152.775681" x2="397.500000" y2="131.125046" style="stroke-width: 4; stroke: gold;" />
	<line  x1="412.854768" y1="144.668737" x2="414.618124" y2="142.241686" style="stroke-width: 1; stroke: grey;" />
	<line  x1="428.473076" y1="157.316194" x2="430.480468" y2="155.086759" style="stroke-width: 1; stroke: grey;" />
	<line  x1="442.683806" y1="171.526924" x2="444.913241" y2="169.519532" style="stroke-width: 1; stroke: grey;" />
	<line  x1="455.331263" y1="187.145232" x2="457.758314" y2="185.381876" style="stroke-width: 1; stroke: grey;" />
	<line  x1="447.224319" y1="215.000000" x2="468.874954" y2="202.500000" style="stroke-width: 4; stroke: gold;" />
	<line  x1="475.400728" y1="221.906565" x2="478.141364" y2="220.686355" style="stroke-width: 1; stroke: grey;" />
	<line  x1="482.602851" y1="240.668737" x2="485.456021" y2="239.741686" style="stroke-width: 1; stroke: grey;" />
	<line  x1="487.804339" y1="260.080955" x2="490.738782" y2="259.457220" style="stroke-width: 1; stroke: grey;" />
	<line  x1="490.948204" y1="279.930535" x2="493.931770" y2="279.616950" style="stroke-width: 1; stroke: grey;" />
	<circle cx="300" cy="400" r="30" stroke="gold" stroke-width="1" fill="#CFD2CF" />	<line  x1="324.000000" y1="400.000000" x2="330.000000" y2="400.000000" style="stroke-width: 2; stroke: gold;" />
	<line  x1="327.846613" y1="402.926797" x2="329.835657" y2="403.135854" style="stroke-width: 1; stroke: gold;" />
	<line  x1="327.388133" y1="405.821527" x2="329.344428" y2="406.237351" style="stroke-width: 1; stroke: gold;" />
	<line  x1="326.629582" y1="408.652476" x2="328.531695" y2="409.270510" style="stroke-width: 1; stroke: gold;" />
	<line  x1="325.579273" y1="411.388626" x2="327.406364" y2="412.202099" style="stroke-width: 1; stroke: gold;" />
	<line  x1="324.248711" y1="414.000000" x2="325.980762" y2="415.000000" style="stroke-width: 1; stroke: gold;" />
	<line  x1="322.652476" y1="416.457987" x2="324.270510" y2="417.633558" style="stroke-width: 1; stroke: gold;" />
	<line  x1="320.808055" y1="418.735657" x2="322.294345" y2="420.073918" style="stroke-width: 1; stroke: gold;" />
	<line  x1="318.735657" y1="420.808055" x2="320.073918" y2="422.294345" style="stroke-width: 1; stroke: gold;" />
	<line  x1="316.457987" y1="422.652476" x2="317.633558" y2="424.270510" style="stroke-width: 1; stroke: gold;" />
	<line  x1="312.000000" y1="420.784610" x2="315.000000" y2="425.980762" style="stroke-width: 2; stroke: gold;" />
	<line  x1="311.388626" y1="425.579273" x2="312.202099" y2="427.406364" style="stroke-width: 1; stroke: gold;" />
	<line  x1="308.652476" y1="426.629582" x2="309.270510" y2="428.531695" style="stroke-width: 1; stroke: gold;" />
	<line  x1="305.821527" y1="427.388133" x2="306.237351" y2="429.344428" style="stroke-width: 1; stroke: gold;" />
	<line  x1="302.926797" y1="427.846613" x2="303.135854" y2="429.835657" style="stroke-width: 1; stroke: gold;" />
	<line  x1="300.000000" y1="428.000000" x2="300.000000" y2="430.000000" style="stroke-width: 1; stroke: gold;" />
	<line  x1="297.073203" y1="427.846613" x2="296.864146" y2="429.835657" style="stroke-width: 1; stroke: gold;" />
	<line  x1="294.178473" y1="427.388133" x2="293.762649" y2="429.344428" style="stroke-width: 1; stroke: gold;" />
	<line  x1="291.347524" y1="426.629582" x2="290.729490" y2="428.531695" style="stroke-width: 1; stroke: gold;" />
	<line  x1="288.611374" y1="425.579273" x2="287.797901" y2="427.406364" style="stroke-width: 1; stroke: gold;" />
	<line  x1="288.000000" y1="420.784610" x2="285.000000" y2="425.980762" style="stroke-width: 2; stroke: gold;" />
	<line  x1="283.542013" y1="422.652476" x2="282.366442" y2="424.270510" style="stroke-width: 1; stroke: gold;" />
	<line  x1="281.264343" y1="420.808055" x2="279.926082" y2="422.294345" style="stroke-width: 1; stroke: gold;" />
	<line  x1="279.191945" y1="418.735657" x2="277.705655" y2="420.073918" style="stroke-width: 1; stroke: gold;" />
	<line  x1="277.347524" y1="416.457987" x2="275.729490" y2="417.633558" style="stroke-width: 1; stroke: gold;" />
	<line  x1="275.751289" y1="414.000000" x2="274.019238" y2="415.000000" style="stroke-width: 1; stroke: gold;" />
	<line  x1="274.420727" y1="411.388626" x2="272.593636" y2="412.202099" style="stroke-width: 1; stroke: gold;" />
	<line  x1="273.370418" y1="408.652476" x2="271.468305" y2="409.270510" style="stroke-width: 1; stroke: gold;" />
	<line  x1="272.611867" y1="405.821527" x2="270.655572" y2="406.237351" style="stroke-width: 1; stroke: gold;" />
	<line  x1="272.153387" y1="402.926797" x2="270.164343" y2="403.135854" style="stroke-width: 1; stroke: gold;" />
	<line  x1="276.000000" y1="400.000000" x2="270.000000" y2="400.000000" style="stroke-width: 2; stroke: gold;" />
	<line  x1="272.153387" y1="397.073203" x2="270.164343" y2="396.864146" style="stroke-width: 1; stroke: gold;" />
	<line  x1="272.611867" y1="394.178473" x2="270.655572" y2="393.762649" style="stroke-width: 1; stroke: gold;" />
	<line  x1="273.370418" y1="391.347524" x2="271.468305" y2="390.729490" style="stroke-width: 1; stroke: gold;" />
	<line  x1="274.420727" y1="388.611374" x2="272.593636" y2="387.797901" style="stroke-width: 1; stroke: gold;" />
	<line  x1="275.751289" y1="386.000000" x2="274.019238" y2="385.000000" style="stroke-width: 1; stroke: gold;" />
	<line  x1="277.347524" y1="383.542013" x2="275.729490" y2="382.366442" style="stroke-width: 1; stroke: gold;" />
	<line  x1="279.191945" y1="381.264343" x2="277.705655" y2="379.926082" style="stroke-width: 1; stroke: gold;" />
	<line  x1="281.264343" y1="379.191945" x2="279.926082" y2="377.705655" style="stroke-width: 1; stroke: gold;" />
	<line  x1="283.542013" y1="377.347524" x2="282.366442" y2="375.729490" style="stroke-width: 1; stroke: gold;" />
	<line  x1="288.000000" y1="379.215390" x2="285.000000" y2="374.019238" style="stroke-width: 2; stroke: gold;" />
	<line  x1="288.611374" y1="374.420727" x2="287.797901" y2="372.593636" style="stroke-width: 1; stroke: gold;" />
	<line  x1="291.347524" y1="373.370418" x2="290.729490" y2="371.468305" style="stroke-width: 1; stroke: gold;" />
	<line  x1="294.178473" y1="372.611867" x2="293.762649" y2="370.655572" style="stroke-width: 1; stroke: gold;" />
	<line  x1="297.073203" y1="372.153387" x2="296.864146" y2="370.164343" style="stroke-width: 1; stroke: gold;" />
	<line  x1="300.000000" y1="372.000000" x2="300.000000" y2="370.000000" style="stroke-width: 1; stroke: gold;" />
	<line  x1="302.926797" y1="372.153387" x2="303.135854" y2="370.164343" style="stroke-width: 1; stroke: gold;" />
	<line  x1="305.821527" y1="372.611867" x2="306.237351" y2="370.655572" style="stroke-width: 1; stroke: gold;" />
	<line  x1="308.652476" y1="373.370418" x2="309.270510" y2="371.468305" style="stroke-width: 1; stroke: gold;" />
	<line  x1="311.388626" y1="374.420727" x2="312.202099" y2="372.593636" style="stroke-width: 1; stroke: gold;" />
	<line  x1="312.000000" y1="379.215390" x2="315.000000" y2="374.019238" style="stroke-width: 2; stroke: gold;" />
	<line  x1="316.457987" y1="377.347524" x2="317.633558" y2="375.729490" style="stroke-width: 1; stroke: gold;" />
	<line  x1="318.735657" y1="379.191945" x2="320.073918" y2="377.705655" style="stroke-width: 1; stroke: gold;" />
	<line  x1="320.808055" y1="381.264343" x2="322.294345" y2="379.926082" style="stroke-width: 1; stroke: gold;" />
	<line  x1="322.652476" y1="383.542013" x2="324.270510" y2="382.366442" style="stroke-width: 1; stroke: gold;" />
	<line  x1="324.248711" y1="386.000000" x2="325.980762" y2="385.000000" style="stroke-width: 1; stroke: gold;" />
	<line  x1="325.579273" y1="388.611374" x2="327.406364" y2="387.797901" style="stroke-width: 1; stroke: gold;" />
	<line  x1="326.629582" y1="391.347524" x2="328.531695" y2="390.729490" style="stroke-width: 1; stroke: gold;" />
	<line  x1="327.388133" y1="394.178473" x2="329.344428" y2="393.762649" style="stroke-width: 1; stroke: gold;" />
	<line  x1="327.846613" y1="397.073203" x2="329.835657" y2="396.864146" style="stroke-width: 1; stroke: gold;" />
	<line  x1="300.000000" y1="300.000000" x2="300.000000" y2="140.000000" style="stroke-width: 3; stroke: gold;" />
	<line  x1="300.000000" y1="300.000000" x2="300.000000" y2="120.000000" style="stroke-width: 1; stroke: gold;" />
	<line  x1="300.000000" y1="400.000000" x2="300.000000" y2="370.000000" style="stroke-width: 1; stroke: gold;" />
<rect x="390.000000" y="276.000000" width="40.000000" height="34.000000" style="stroke:gold; fill : white ; stroke-width:1" /><text x="400.000000" y="300.000000" style = " font :  16px sans-serif ">19</text><text x="260" y="200" fill="grey" style = " font :  12px sans-serif">claude </text><text x="304" y="200" fill="grey" style = " font :  12px sans-serif ">bernard </text>	<circle cx="300" cy="300" r="6" stroke="gold" stroke-width="1" fill="gold" />	<circle cx="300" cy="300" r="2" stroke="grey" stroke-width="1" fill="grey" />	<circle cx="300" cy="400" r="2" stroke="gold" stroke-width="1" fill="gold" /></svg>